General 

Format: Matroska
Format version: Version 2
File size: 2.73 GiB
Duration: 2h 36mn
Overall bit rate: 2 486 Kbps

Video 

Duration: 2h 36mn
Bit rate: 2 052 Kbps
Width: 720 pixels
Height: 384 pixels
Display aspect ratio: 1.85:1
Frame rate mode: Constant
Frame rate: 29.970 fps
Color space: YUV
Chroma subsampling: 4:2:0
Bit depth: 8 bits
Scan type: Progressive
Bits/(Pixel*Frame): 0.248
Stream size: 2.25 GiB (83%)
Writing library: x264 core 120
Encoding settings: cabac=1 / ref=1 / deblock=1:0:0 / analyse=0x1:0x111 / me=hex / subme=2 / psy=1 / psy_rd=1.00:0.00 / mixed_ref=0 / me_range=16 / chroma_me=1 / trellis=0 / 8x8dct=0 / cqm=0 / deadzone=21,11 / fast_pskip=1 / chroma_qp_offset=0 / threads=3 / sliced_threads=0 / nr=0 / decimate=1 / interlaced=0 / bluray_compat=0 / constrained_intra=0 / bframes=3 / b_pyramid=2 / b_adapt=1 / b_bias=0 / direct=1 / weightb=1 / open_gop=0 / weightp=1 / keyint=300 / keyint_min=30 / scenecut=40 / intra_refresh=0 / rc_lookahead=10 / rc=crf / mbtree=1 / crf=12.8 / qcomp=0.60 / qpmin=3 / qpmax=69 / qpstep=4 / ip_ratio=1.40 / aq=1:1.00
Language: English


Audio 

Format: AC-3
Format/Info: Audio Coding 3
Duration: 2h 36mn
Bit rate mode: Constant
Bit rate: 384 Kbps
Channel(s): 2 channels
Channel positions: Front: L R
Sampling rate: 48.0 KHz
Bit depth: 16 bits
Compression mode: Lossy
Stream size: 431 MiB (15%)

Links  
http://www.imdb.com/title/tt1790885/
